<svg xmlns="http://www.w3.org/2000/svg" viewBox="0 0 220 64" role="img" aria-label="Treuherz">
  <!-- mark -->
  <rect x="4" y="14" width="36" height="36" rx="11" fill="#E07856"/>
  <g fill="#FAF6F0" transform="translate(11 21) scale(0.92)">
    <circle cx="7.8" cy="9.5" r="1.7"/>
    <circle cx="10.7" cy="7.8" r="1.7"/>
    <circle cx="13.3" cy="7.8" r="1.7"/>
    <circle cx="16.2" cy="9.5" r="1.7"/>
    <path d="M12 19.7c-3-2.6-4.5-4.3-4.5-6 0-1.3.95-2.2 2.15-2.2.85 0 1.65.5 2.35 1.45.7-.95 1.5-1.45 2.35-1.45 1.2 0 2.15.9 2.15 2.2 0 1.7-1.5 3.4-4.5 6Z"/>
  </g>
  <!-- wordmark -->
  <text x="52" y="42" font-family="'Instrument Serif', Georgia, serif" font-size="30" fill="#2B2724">Treuherz</text>
</svg>
